<?xml version="1.0"?>
<svg xmlns="http://www.w3.org/2000/svg" height="512px" viewBox="-91 0 512 512.001" width="512px"><g><path d="m165 331c90.980469 0 165-74.019531 165-165s-74.019531-166-165-166-165 75.019531-165 166 74.019531 165 165 165zm.160156-154.394531c-24.8125 0-45-20.1875-45-45 0-19.46875 12.5-35.929688 29.839844-42.1875v-13.417969c0-8.289062 6.710938-15 15-15 8.292969 0 15 6.710938 15 15v13.320312c17.503906 6.164063 30.160156 22.695313 30.160156 42.285157 0 8.289062-6.707031 15-15 15-8.289062 0-15-6.710938-15-15 0-8.277344-6.722656-15-15-15-8.273437 0-15 6.722656-15 15 0 8.277343 6.726563 15 15 15 24.816406 0 45 20.183593 45 45 0 19.589843-12.65625 36.117187-30.160156 42.285156v22.109375c0 8.289062-6.707031 15-15 15-8.289062 0-15-6.710938-15-15v-22.210938c-17.339844-6.253906-29.839844-22.714843-29.839844-42.183593 0-8.292969 6.710938-15 15-15 8.292969 0 15 6.707031 15 15 0 8.277343 6.726563 15 15 15 8.277344 0 15-6.722657 15-15 0-8.277344-6.722656-15-15-15zm0 0" data-original="#000000" class="active-path" data-old_color="#000000" fill="#79BA00"/><path d="m238.855469 431.257812c-2.316407-5.609374-7.792969-9.257812-13.859375-9.257812h-29.996094v-63.554688c-9.804688 1.527344-19.773438 2.554688-30 2.554688s-20.195312-1.027344-30-2.554688v63.554688h-29.996094c-6.0625 0-11.542968 3.648438-13.855468 9.257812-2.328126 5.609376-1.039063 12.054688 3.25 16.347657l59.996093 60c2.929688 2.929687 6.769531 4.394531 10.605469 4.394531s7.675781-1.464844 10.605469-4.394531l59.996093-60c4.292969-4.292969 5.582032-10.738281 3.253907-16.347657zm0 0" data-original="#000000" class="active-path" data-old_color="#000000" fill="#79BA00"/></g> </svg>
